{
    "asset" : {
        "generator" : "Khronos glTF Blender I/O v1.4.40",
        "version" : "2.0"
    },
    "scene" : 0,
    "scenes" : [
        {
            "name" : "Scene",
            "nodes" : [
                0,
                1,
                2,
                3,
                4,
                5,
                6,
                7,
                8
            ]
        }
    ],
    "nodes" : [
        {
            "mesh" : 0,
            "name" : "09_low",
            "translation" : [
                0,
                0,
                -2.1315035820007324
            ]
        },
        {
            "mesh" : 1,
            "name" : "10_low",
            "translation" : [
                0,
                0,
                -9.884675979614258
            ]
        },
        {
            "mesh" : 2,
            "name" : "11_low",
            "translation" : [
                0,
                0,
                -2.1311912536621094
            ]
        },
        {
            "mesh" : 3,
            "name" : "01_low",
            "translation" : [
                0.0556187629699707,
                0.09633493423461914,
                -10.048072814941406
            ]
        },
        {
            "mesh" : 4,
            "name" : "12_low",
            "translation" : [
                -0.055619001388549805,
                0.09633492678403854,
                -10.048072814941406
            ]
        },
        {
            "mesh" : 5,
            "name" : "13_low",
            "translation" : [
                -0.11123800277709961,
                0,
                -10.048072814941406
            ]
        },
        {
            "mesh" : 6,
            "name" : "14_low",
            "translation" : [
                -0.055619001388549805,
                -0.09633496403694153,
                -10.048072814941406
            ]
        },
        {
            "mesh" : 7,
            "name" : "15_low",
            "translation" : [
                0.055619239807128906,
                -0.09633494168519974,
                -10.048072814941406
            ]
        },
        {
            "mesh" : 8,
            "name" : "16_low",
            "translation" : [
                0.11123800277709961,
                0,
                -10.048072814941406
            ]
        }
    ],
    "materials" : [
        {
            "doubleSided" : true,
            "name" : "Material",
            "pbrMetallicRoughness" : {}
        }
    ],
    "meshes" : [
        {
            "name" : "09_low",
            "primitives" : [
                {
                    "attributes" : {
                        "POSITION" : 0,
                        "NORMAL" : 1,
                        "TEXCOORD_0" : 2
                    },
                    "indices" : 3,
                    "material" : 0
                }
            ]
        },
        {
            "name" : "10_low",
            "primitives" : [
                {
                    "attributes" : {
                        "POSITION" : 4,
                        "NORMAL" : 5,
                        "TEXCOORD_0" : 6
                    },
                    "indices" : 7,
                    "material" : 0
                }
            ]
        },
        {
            "name" : "11_low",
            "primitives" : [
                {
                    "attributes" : {
                        "POSITION" : 8,
                        "NORMAL" : 9,
                        "TEXCOORD_0" : 10
                    },
                    "indices" : 11,
                    "material" : 0
                }
            ]
        },
        {
            "name" : "01_low",
            "primitives" : [
                {
                    "attributes" : {
                        "POSITION" : 12,
                        "NORMAL" : 13,
                        "TEXCOORD_0" : 14
                    },
                    "indices" : 15,
                    "material" : 0
                }
            ]
        },
        {
            "name" : "12_low",
            "primitives" : [
                {
                    "attributes" : {
                        "POSITION" : 16,
                        "NORMAL" : 17,
                        "TEXCOORD_0" : 18
                    },
                    "indices" : 19,
                    "material" : 0
                }
            ]
        },
        {
            "name" : "13_low",
            "primitives" : [
                {
                    "attributes" : {
                        "POSITION" : 20,
                        "NORMAL" : 21,
                        "TEXCOORD_0" : 22
                    },
                    "indices" : 23,
                    "material" : 0
                }
            ]
        },
        {
            "name" : "14_low",
            "primitives" : [
                {
                    "attributes" : {
                        "POSITION" : 24,
                        "NORMAL" : 25,
                        "TEXCOORD_0" : 26
                    },
                    "indices" : 27,
                    "material" : 0
                }
            ]
        },
        {
            "name" : "15_low",
            "primitives" : [
                {
                    "attributes" : {
                        "POSITION" : 28,
                        "NORMAL" : 29,
                        "TEXCOORD_0" : 30
                    },
                    "indices" : 31,
                    "material" : 0
                }
            ]
        },
        {
            "name" : "16_low",
            "primitives" : [
                {
                    "attributes" : {
                        "POSITION" : 32,
                        "NORMAL" : 33,
                        "TEXCOORD_0" : 34
                    },
                    "indices" : 35,
                    "material" : 0
                }
            ]
        }
    ],
    "accessors" : [
        {
            "bufferView" : 0,
            "componentType" : 5126,
            "count" : 247,
            "max" : [
                0.2154732644557953,
                0.2154732495546341,
                -7.010751724243164
            ],
            "min" : [
                -0.2154732644557953,
                -0.21547327935695648,
                -7.924778461456299
            ],
            "type" : "VEC3"
        },
        {
            "bufferView" : 1,
            "componentType" : 5126,
            "count" : 247,
            "type" : "VEC3"
        },
        {
            "bufferView" : 2,
            "componentType" : 5126,
            "count" : 247,
            "type" : "VEC2"
        },
        {
            "bufferView" : 3,
            "componentType" : 5123,
            "count" : 720,
            "type" : "SCALAR"
        },
        {
            "bufferView" : 4,
            "componentType" : 5126,
            "count" : 1940,
            "max" : [
                0.7563837766647339,
                0.7480814456939697,
                0.18164461851119995
            ],
            "min" : [
                -0.7563837170600891,
                -0.7480814456939697,
                -0.18164034187793732
            ],
            "type" : "VEC3"
        },
        {
            "bufferView" : 5,
            "componentType" : 5126,
            "count" : 1940,
            "type" : "VEC3"
        },
        {
            "bufferView" : 6,
            "componentType" : 5126,
            "count" : 1940,
            "type" : "VEC2"
        },
        {
            "bufferView" : 7,
            "componentType" : 5123,
            "count" : 9216,
            "type" : "SCALAR"
        },
        {
            "bufferView" : 8,
            "componentType" : 5126,
            "count" : 164,
            "max" : [
                0.16771598160266876,
                0.16771598160266876,
                -7.8881354331970215
            ],
            "min" : [
                -0.16771598160266876,
                -0.16771598160266876,
                -7.916881561279297
            ],
            "type" : "VEC3"
        },
        {
            "bufferView" : 9,
            "componentType" : 5126,
            "count" : 164,
            "type" : "VEC3"
        },
        {
            "bufferView" : 10,
            "componentType" : 5126,
            "count" : 164,
            "type" : "VEC2"
        },
        {
            "bufferView" : 11,
            "componentType" : 5123,
            "count" : 480,
            "type" : "SCALAR"
        },
        {
            "bufferView" : 12,
            "componentType" : 5126,
            "count" : 114,
            "max" : [
                0.026824090629816055,
                0.030973784625530243,
                6.5408354288365445e-09
            ],
            "min" : [
                -0.02682408317923546,
                -0.030973782762885094,
                -0.022588029503822327
            ],
            "type" : "VEC3"
        },
        {
            "bufferView" : 13,
            "componentType" : 5126,
            "count" : 114,
            "type" : "VEC3"
        },
        {
            "bufferView" : 14,
            "componentType" : 5126,
            "count" : 114,
            "type" : "VEC2"
        },
        {
            "bufferView" : 15,
            "componentType" : 5123,
            "count" : 372,
            "type" : "SCALAR"
        },
        {
            "bufferView" : 16,
            "componentType" : 5126,
            "count" : 114,
            "max" : [
                0.026824090629816055,
                0.030973786488175392,
                9.471451178910684e-09
            ],
            "min" : [
                -0.02682408317923546,
                -0.030973780900239944,
                -0.022588031366467476
            ],
            "type" : "VEC3"
        },
        {
            "bufferView" : 17,
            "componentType" : 5126,
            "count" : 114,
            "type" : "VEC3"
        },
        {
            "bufferView" : 18,
            "componentType" : 5126,
            "count" : 114,
            "type" : "VEC2"
        },
        {
            "bufferView" : 19,
            "componentType" : 5123,
            "count" : 372,
            "type" : "SCALAR"
        },
        {
            "bufferView" : 20,
            "componentType" : 5126,
            "count" : 114,
            "max" : [
                0.026824086904525757,
                0.03097379207611084,
                1.1542159228383753e-08
            ],
            "min" : [
                -0.026824088767170906,
                -0.030973779037594795,
                -0.022588033229112625
            ],
            "type" : "VEC3"
        },
        {
            "bufferView" : 21,
            "componentType" : 5126,
            "count" : 114,
            "type" : "VEC3"
        },
        {
            "bufferView" : 22,
            "componentType" : 5126,
            "count" : 114,
            "type" : "VEC2"
        },
        {
            "bufferView" : 23,
            "componentType" : 5123,
            "count" : 372,
            "type" : "SCALAR"
        },
        {
            "bufferView" : 24,
            "componentType" : 5126,
            "count" : 114,
            "max" : [
                0.026824090629816055,
                0.03097378835082054,
                9.458956284902342e-09
            ],
            "min" : [
                -0.026824098080396652,
                -0.030973782762885094,
                -0.022588031366467476
            ],
            "type" : "VEC3"
        },
        {
            "bufferView" : 25,
            "componentType" : 5126,
            "count" : 114,
            "type" : "VEC3"
        },
        {
            "bufferView" : 26,
            "componentType" : 5126,
            "count" : 114,
            "type" : "VEC2"
        },
        {
            "bufferView" : 27,
            "componentType" : 5123,
            "count" : 372,
            "type" : "SCALAR"
        },
        {
            "bufferView" : 28,
            "componentType" : 5126,
            "count" : 114,
            "max" : [
                0.026824094355106354,
                0.030973782762885094,
                5.305047956483122e-09
            ],
            "min" : [
                -0.02682410180568695,
                -0.030973782762885094,
                -0.022588027641177177
            ],
            "type" : "VEC3"
        },
        {
            "bufferView" : 29,
            "componentType" : 5126,
            "count" : 114,
            "type" : "VEC3"
        },
        {
            "bufferView" : 30,
            "componentType" : 5126,
            "count" : 114,
            "type" : "VEC2"
        },
        {
            "bufferView" : 31,
            "componentType" : 5123,
            "count" : 372,
            "type" : "SCALAR"
        },
        {
            "bufferView" : 32,
            "componentType" : 5126,
            "count" : 114,
            "max" : [
                0.02682408317923546,
                0.030973779037594795,
                3.2343439038129418e-09
            ],
            "min" : [
                -0.02682408317923546,
                -0.030973786488175392,
                -0.022588025778532028
            ],
            "type" : "VEC3"
        },
        {
            "bufferView" : 33,
            "componentType" : 5126,
            "count" : 114,
            "type" : "VEC3"
        },
        {
            "bufferView" : 34,
            "componentType" : 5126,
            "count" : 114,
            "type" : "VEC2"
        },
        {
            "bufferView" : 35,
            "componentType" : 5123,
            "count" : 372,
            "type" : "SCALAR"
        }
    ],
    "bufferViews" : [
        {
            "buffer" : 0,
            "byteLength" : 2964,
            "byteOffset" : 0
        },
        {
            "buffer" : 0,
            "byteLength" : 2964,
            "byteOffset" : 2964
        },
        {
            "buffer" : 0,
            "byteLength" : 1976,
            "byteOffset" : 5928
        },
        {
            "buffer" : 0,
            "byteLength" : 1440,
            "byteOffset" : 7904
        },
        {
            "buffer" : 0,
            "byteLength" : 23280,
            "byteOffset" : 9344
        },
        {
            "buffer" : 0,
            "byteLength" : 23280,
            "byteOffset" : 32624
        },
        {
            "buffer" : 0,
            "byteLength" : 15520,
            "byteOffset" : 55904
        },
        {
            "buffer" : 0,
            "byteLength" : 18432,
            "byteOffset" : 71424
        },
        {
            "buffer" : 0,
            "byteLength" : 1968,
            "byteOffset" : 89856
        },
        {
            "buffer" : 0,
            "byteLength" : 1968,
            "byteOffset" : 91824
        },
        {
            "buffer" : 0,
            "byteLength" : 1312,
            "byteOffset" : 93792
        },
        {
            "buffer" : 0,
            "byteLength" : 960,
            "byteOffset" : 95104
        },
        {
            "buffer" : 0,
            "byteLength" : 1368,
            "byteOffset" : 96064
        },
        {
            "buffer" : 0,
            "byteLength" : 1368,
            "byteOffset" : 97432
        },
        {
            "buffer" : 0,
            "byteLength" : 912,
            "byteOffset" : 98800
        },
        {
            "buffer" : 0,
            "byteLength" : 744,
            "byteOffset" : 99712
        },
        {
            "buffer" : 0,
            "byteLength" : 1368,
            "byteOffset" : 100456
        },
        {
            "buffer" : 0,
            "byteLength" : 1368,
            "byteOffset" : 101824
        },
        {
            "buffer" : 0,
            "byteLength" : 912,
            "byteOffset" : 103192
        },
        {
            "buffer" : 0,
            "byteLength" : 744,
            "byteOffset" : 104104
        },
        {
            "buffer" : 0,
            "byteLength" : 1368,
            "byteOffset" : 104848
        },
        {
            "buffer" : 0,
            "byteLength" : 1368,
            "byteOffset" : 106216
        },
        {
            "buffer" : 0,
            "byteLength" : 912,
            "byteOffset" : 107584
        },
        {
            "buffer" : 0,
            "byteLength" : 744,
            "byteOffset" : 108496
        },
        {
            "buffer" : 0,
            "byteLength" : 1368,
            "byteOffset" : 109240
        },
        {
            "buffer" : 0,
            "byteLength" : 1368,
            "byteOffset" : 110608
        },
        {
            "buffer" : 0,
            "byteLength" : 912,
            "byteOffset" : 111976
        },
        {
            "buffer" : 0,
            "byteLength" : 744,
            "byteOffset" : 112888
        },
        {
            "buffer" : 0,
            "byteLength" : 1368,
            "byteOffset" : 113632
        },
        {
            "buffer" : 0,
            "byteLength" : 1368,
            "byteOffset" : 115000
        },
        {
            "buffer" : 0,
            "byteLength" : 912,
            "byteOffset" : 116368
        },
        {
            "buffer" : 0,
            "byteLength" : 744,
            "byteOffset" : 117280
        },
        {
            "buffer" : 0,
            "byteLength" : 1368,
            "byteOffset" : 118024
        },
        {
            "buffer" : 0,
            "byteLength" : 1368,
            "byteOffset" : 119392
        },
        {
            "buffer" : 0,
            "byteLength" : 912,
            "byteOffset" : 120760
        },
        {
            "buffer" : 0,
            "byteLength" : 744,
            "byteOffset" : 121672
        }
    ],
    "buffers" : [
        {
            "byteLength" : 122416,
            "uri" : "data:application/octet-stream;base64,"
        }
    ]
}
