{
    "asset" : {
        "generator" : "Khronos glTF Blender I/O v1.4.40",
        "version" : "2.0"
    },
    "scene" : 0,
    "scenes" : [
        {
            "name" : "Scene",
            "nodes" : [
                0,
                1,
                2,
                3,
                4,
                5,
                6
            ]
        }
    ],
    "nodes" : [
        {
            "mesh" : 0,
            "name" : "08_low",
            "translation" : [
                0,
                2.2832584381103516,
                0.1243438720703125
            ]
        },
        {
            "mesh" : 1,
            "name" : "02_low",
            "translation" : [
                0,
                0,
                -1.6863389015197754
            ]
        },
        {
            "mesh" : 2,
            "name" : "04_low",
            "translation" : [
                0,
                3.51396107673645,
                1.5008087158203125
            ]
        },
        {
            "mesh" : 3,
            "name" : "05_low",
            "translation" : [
                0,
                3.51396107673645,
                0.9142947196960449
            ]
        },
        {
            "mesh" : 4,
            "name" : "06_low",
            "translation" : [
                0,
                2.29396653175354,
                0.14780807495117188
            ]
        },
        {
            "mesh" : 5,
            "name" : "07_low",
            "translation" : [
                0,
                2.2832584381103516,
                0.1243438720703125
            ]
        },
        {
            "mesh" : 6,
            "name" : "03_low",
            "translation" : [
                0,
                -0.000277201907010749,
                -1.6863389015197754
            ]
        }
    ],
    "materials" : [
        {
            "doubleSided" : true,
            "name" : "Material",
            "pbrMetallicRoughness" : {}
        }
    ],
    "meshes" : [
        {
            "name" : "08_low",
            "primitives" : [
                {
                    "attributes" : {
                        "POSITION" : 0,
                        "NORMAL" : 1,
                        "TEXCOORD_0" : 2
                    },
                    "indices" : 3,
                    "material" : 0
                }
            ]
        },
        {
            "name" : "02_low",
            "primitives" : [
                {
                    "attributes" : {
                        "POSITION" : 4,
                        "NORMAL" : 5,
                        "TEXCOORD_0" : 6
                    },
                    "indices" : 7,
                    "material" : 0
                }
            ]
        },
        {
            "name" : "04_low",
            "primitives" : [
                {
                    "attributes" : {
                        "POSITION" : 8,
                        "NORMAL" : 9,
                        "TEXCOORD_0" : 10
                    },
                    "indices" : 11,
                    "material" : 0
                }
            ]
        },
        {
            "name" : "05_low",
            "primitives" : [
                {
                    "attributes" : {
                        "POSITION" : 12,
                        "NORMAL" : 13,
                        "TEXCOORD_0" : 14
                    },
                    "indices" : 15,
                    "material" : 0
                }
            ]
        },
        {
            "name" : "06_low",
            "primitives" : [
                {
                    "attributes" : {
                        "POSITION" : 16,
                        "NORMAL" : 17,
                        "TEXCOORD_0" : 18
                    },
                    "indices" : 19,
                    "material" : 0
                }
            ]
        },
        {
            "name" : "07_low",
            "primitives" : [
                {
                    "attributes" : {
                        "POSITION" : 20,
                        "NORMAL" : 21,
                        "TEXCOORD_0" : 22
                    },
                    "indices" : 23,
                    "material" : 0
                }
            ]
        },
        {
            "name" : "03_low",
            "primitives" : [
                {
                    "attributes" : {
                        "POSITION" : 24,
                        "NORMAL" : 25,
                        "TEXCOORD_0" : 26
                    },
                    "indices" : 27,
                    "material" : 0
                }
            ]
        }
    ],
    "accessors" : [
        {
            "bufferView" : 0,
            "componentType" : 5126,
            "count" : 149,
            "max" : [
                0.005798188503831625,
                0.0060868519358336926,
                0.01637105457484722
            ],
            "min" : [
                -0.005798188503831625,
                -0.006094563286751509,
                -0.006189580075442791
            ],
            "type" : "VEC3"
        },
        {
            "bufferView" : 1,
            "componentType" : 5126,
            "count" : 149,
            "type" : "VEC3"
        },
        {
            "bufferView" : 2,
            "componentType" : 5126,
            "count" : 149,
            "type" : "VEC2"
        },
        {
            "bufferView" : 3,
            "componentType" : 5123,
            "count" : 432,
            "type" : "SCALAR"
        },
        {
            "bufferView" : 4,
            "componentType" : 5126,
            "count" : 5252,
            "max" : [
                1.821117877960205,
                3.5139613151550293,
                10.350281715393066
            ],
            "min" : [
                -1.821117877960205,
                -1.8196327686309814,
                -7.88953161239624
            ],
            "type" : "VEC3"
        },
        {
            "bufferView" : 5,
            "componentType" : 5126,
            "count" : 5252,
            "type" : "VEC3"
        },
        {
            "bufferView" : 6,
            "componentType" : 5126,
            "count" : 5252,
            "type" : "VEC2"
        },
        {
            "bufferView" : 7,
            "componentType" : 5123,
            "count" : 27516,
            "type" : "SCALAR"
        },
        {
            "bufferView" : 8,
            "componentType" : 5126,
            "count" : 281,
            "max" : [
                0.09901314973831177,
                1.3413593769073486,
                0.09901314973831177
            ],
            "min" : [
                -0.09901314973831177,
                0,
                -0.09901314973831177
            ],
            "type" : "VEC3"
        },
        {
            "bufferView" : 9,
            "componentType" : 5126,
            "count" : 281,
            "type" : "VEC3"
        },
        {
            "bufferView" : 10,
            "componentType" : 5126,
            "count" : 281,
            "type" : "VEC2"
        },
        {
            "bufferView" : 11,
            "componentType" : 5123,
            "count" : 816,
            "type" : "SCALAR"
        },
        {
            "bufferView" : 12,
            "componentType" : 5126,
            "count" : 149,
            "max" : [
                0.1441090703010559,
                0.957298755645752,
                0.1441090703010559
            ],
            "min" : [
                -0.1441090703010559,
                0,
                -0.1441090703010559
            ],
            "type" : "VEC3"
        },
        {
            "bufferView" : 13,
            "componentType" : 5126,
            "count" : 149,
            "type" : "VEC3"
        },
        {
            "bufferView" : 14,
            "componentType" : 5126,
            "count" : 149,
            "type" : "VEC2"
        },
        {
            "bufferView" : 15,
            "componentType" : 5123,
            "count" : 432,
            "type" : "SCALAR"
        },
        {
            "bufferView" : 16,
            "componentType" : 5126,
            "count" : 58,
            "max" : [
                0.09202028810977936,
                0.15089872479438782,
                0.0175492987036705
            ],
            "min" : [
                -0.09202028810977936,
                -0.15089872479438782,
                -0.01754949428141117
            ],
            "type" : "VEC3"
        },
        {
            "bufferView" : 17,
            "componentType" : 5126,
            "count" : 58,
            "type" : "VEC3"
        },
        {
            "bufferView" : 18,
            "componentType" : 5126,
            "count" : 58,
            "type" : "VEC2"
        },
        {
            "bufferView" : 19,
            "componentType" : 5123,
            "count" : 168,
            "type" : "SCALAR"
        },
        {
            "bufferView" : 20,
            "componentType" : 5126,
            "count" : 804,
            "max" : [
                0.051813237369060516,
                0.05174808204174042,
                0.008330919779837132
            ],
            "min" : [
                -0.051813237369060516,
                -0.05174808204174042,
                -0.008330919779837132
            ],
            "type" : "VEC3"
        },
        {
            "bufferView" : 21,
            "componentType" : 5126,
            "count" : 804,
            "type" : "VEC3"
        },
        {
            "bufferView" : 22,
            "componentType" : 5126,
            "count" : 804,
            "type" : "VEC2"
        },
        {
            "bufferView" : 23,
            "componentType" : 5123,
            "count" : 3792,
            "type" : "SCALAR"
        },
        {
            "bufferView" : 24,
            "componentType" : 5126,
            "count" : 288,
            "max" : [
                0.4418081045150757,
                2.28670597076416,
                3.73661208152771
            ],
            "min" : [
                -0.4418081045150757,
                2.1182444095611572,
                0.38396361470222473
            ],
            "type" : "VEC3"
        },
        {
            "bufferView" : 25,
            "componentType" : 5126,
            "count" : 288,
            "type" : "VEC3"
        },
        {
            "bufferView" : 26,
            "componentType" : 5126,
            "count" : 288,
            "type" : "VEC2"
        },
        {
            "bufferView" : 27,
            "componentType" : 5123,
            "count" : 864,
            "type" : "SCALAR"
        }
    ],
    "bufferViews" : [
        {
            "buffer" : 0,
            "byteLength" : 1788,
            "byteOffset" : 0
        },
        {
            "buffer" : 0,
            "byteLength" : 1788,
            "byteOffset" : 1788
        },
        {
            "buffer" : 0,
            "byteLength" : 1192,
            "byteOffset" : 3576
        },
        {
            "buffer" : 0,
            "byteLength" : 864,
            "byteOffset" : 4768
        },
        {
            "buffer" : 0,
            "byteLength" : 63024,
            "byteOffset" : 5632
        },
        {
            "buffer" : 0,
            "byteLength" : 63024,
            "byteOffset" : 68656
        },
        {
            "buffer" : 0,
            "byteLength" : 42016,
            "byteOffset" : 131680
        },
        {
            "buffer" : 0,
            "byteLength" : 55032,
            "byteOffset" : 173696
        },
        {
            "buffer" : 0,
            "byteLength" : 3372,
            "byteOffset" : 228728
        },
        {
            "buffer" : 0,
            "byteLength" : 3372,
            "byteOffset" : 232100
        },
        {
            "buffer" : 0,
            "byteLength" : 2248,
            "byteOffset" : 235472
        },
        {
            "buffer" : 0,
            "byteLength" : 1632,
            "byteOffset" : 237720
        },
        {
            "buffer" : 0,
            "byteLength" : 1788,
            "byteOffset" : 239352
        },
        {
            "buffer" : 0,
            "byteLength" : 1788,
            "byteOffset" : 241140
        },
        {
            "buffer" : 0,
            "byteLength" : 1192,
            "byteOffset" : 242928
        },
        {
            "buffer" : 0,
            "byteLength" : 864,
            "byteOffset" : 244120
        },
        {
            "buffer" : 0,
            "byteLength" : 696,
            "byteOffset" : 244984
        },
        {
            "buffer" : 0,
            "byteLength" : 696,
            "byteOffset" : 245680
        },
        {
            "buffer" : 0,
            "byteLength" : 464,
            "byteOffset" : 246376
        },
        {
            "buffer" : 0,
            "byteLength" : 336,
            "byteOffset" : 246840
        },
        {
            "buffer" : 0,
            "byteLength" : 9648,
            "byteOffset" : 247176
        },
        {
            "buffer" : 0,
            "byteLength" : 9648,
            "byteOffset" : 256824
        },
        {
            "buffer" : 0,
            "byteLength" : 6432,
            "byteOffset" : 266472
        },
        {
            "buffer" : 0,
            "byteLength" : 7584,
            "byteOffset" : 272904
        },
        {
            "buffer" : 0,
            "byteLength" : 3456,
            "byteOffset" : 280488
        },
        {
            "buffer" : 0,
            "byteLength" : 3456,
            "byteOffset" : 283944
        },
        {
            "buffer" : 0,
            "byteLength" : 2304,
            "byteOffset" : 287400
        },
        {
            "buffer" : 0,
            "byteLength" : 1728,
            "byteOffset" : 289704
        }
    ],
    "buffers" : [
        {
            "byteLength" : 291432,
            "uri" : "data:application/octet-stream;base64,"
        }
    ]
}
